<?xml version="1.0" encoding="utf-8"?>
<!-- Generator: Adobe Illustrator 14.0.0, SVG Export Plug-In . SVG Version: 6.00 Build 43363)  -->
<!DOCTYPE svg PUBLIC "-//W3C//DTD SVG 1.1//EN" "http://www.w3.org/Graphics/SVG/1.1/DTD/svg11.dtd">
<svg version="1.1" xmlns="http://www.w3.org/2000/svg" xmlns:xlink="http://www.w3.org/1999/xlink" x="0px" y="0px" width="339.3px"
	 height="400px" viewBox="0 0 339.3 400" enable-background="new 0 0 339.3 400" xml:space="preserve">
<g id="Layer_3">
	<rect fill="#ACA691" width="23.3" height="400"/>
	<rect x="23.3" y="209.6" fill="#C0B29A" width="234.1" height="190.4"/>
	<rect x="23.3" y="3.6" fill="#B72817" width="122.2" height="61.4"/>
	<rect x="145.5" y="209.6" fill="#B62110" width="162" height="89.5"/>
	<rect x="23.3" y="64.9" fill="#3A6C88" width="122.2" height="144.7"/>
	<rect x="145.5" y="299.1" fill="#41708D" width="112" height="65.9"/>
	<rect x="23.3" y="365" fill="#CEA92E" width="234.1" height="28.1"/>
	<rect x="213" y="25.6" fill="#C19C27" width="123.2" height="119.1"/>
	<rect x="145.5" y="64.9" fill="#1B1B1B" width="67.5" height="144.7"/>
	<rect x="307.6" y="144.7" fill="#1B1B1B" width="28.6" height="154.4"/>
	<rect x="213" y="144.7" fill="#C0B29A" width="94.6" height="64.9"/>
	<rect x="213" fill="#B5A78C" width="123.2" height="25.6"/>
	<rect x="145.5" y="3.6" fill="#B5A78C" width="67.5" height="61.4"/>
	<rect x="257.5" y="299.1" fill="#A2987E" width="81.8" height="100.9"/>
</g>
<g id="Layer_2">
	<line fill="none" stroke="#000000" stroke-width="8" x1="23.3" y1="0" x2="23.3" y2="400"/>
	<line fill="none" stroke="#000000" stroke-width="8" x1="145.5" y1="0" x2="145.5" y2="393.1"/>
	<line fill="none" stroke="#000000" stroke-width="8" x1="213" y1="0" x2="213" y2="299.1"/>
	<line fill="none" stroke="#000000" stroke-width="8.0406" x1="335.4" y1="0" x2="335.4" y2="397.1"/>
	<line fill="none" stroke="#000000" stroke-width="8" x1="336.2" y1="393.1" x2="23.3" y2="393.1"/>
	<line fill="none" stroke="#000000" stroke-width="8" x1="0" y1="365" x2="336.2" y2="365"/>
	<line fill="none" stroke="#000000" stroke-width="8" x1="257.5" y1="393.1" x2="257.5" y2="299.1"/>
	<line fill="none" stroke="#000000" stroke-width="8" x1="307.6" y1="365" x2="307.6" y2="144.7"/>
	<line fill="none" stroke="#000000" stroke-width="8" x1="336.2" y1="25.6" x2="213" y2="25.6"/>
	<line fill="none" stroke="#000000" stroke-width="8" x1="23.3" y1="3.6" x2="213" y2="3.6"/>
	<line fill="none" stroke="#000000" stroke-width="8" x1="23.3" y1="209.6" x2="307.6" y2="209.6"/>
	<line fill="none" stroke="#000000" stroke-width="8" x1="23.3" y1="235.7" x2="145.5" y2="235.7"/>
	<line fill="none" stroke="#000000" stroke-width="8" x1="145.5" y1="299.1" x2="336.2" y2="299.1"/>
	<line fill="none" stroke="#000000" stroke-width="8" x1="213" y1="144.7" x2="336.2" y2="144.7"/>
	<line fill="none" stroke="#000000" stroke-width="8" x1="0" y1="64.9" x2="213" y2="64.9"/>
</g>
</svg>
