<?xml version="1.0" encoding="utf-8"?>
<!-- Generator: Adobe Illustrator 14.0.0, SVG Export Plug-In . SVG Version: 6.00 Build 43363)  -->
<!DOCTYPE svg PUBLIC "-//W3C//DTD SVG 1.1//EN" "http://www.w3.org/Graphics/SVG/1.1/DTD/svg11.dtd">
<svg version="1.1" xmlns="http://www.w3.org/2000/svg" xmlns:xlink="http://www.w3.org/1999/xlink" x="0px" y="0px" width="357.9px"
	 height="400px" viewBox="0 0 357.9 400" enable-background="new 0 0 357.9 400" xml:space="preserve">
<g id="Layer_3">
	<rect y="225.8" fill="#FFFE02" width="27.6" height="44.7"/>
	<rect y="290.5" fill="#C2100B" width="27.6" height="25.3"/>
	<rect x="180.9" y="385.2" fill="#C2100B" width="18.1" height="14.8"/>
	<rect x="276.3" y="385.2" fill="#FDFF00" width="69.3" height="14.8"/>
</g>
<g id="Layer_2">
	<line fill="none" stroke="#000000" stroke-width="8" x1="27.6" y1="0" x2="27.6" y2="400"/>
	<line fill="none" stroke="#000000" stroke-width="8" x1="82.3" y1="0" x2="82.3" y2="400"/>
	<line fill="none" stroke="#000000" stroke-width="8" x1="276.3" y1="0" x2="276.3" y2="400"/>
	<line fill="none" stroke="#000000" stroke-width="8" x1="315.6" y1="0" x2="315.6" y2="400"/>
	<line fill="none" stroke="#000000" stroke-width="8" x1="345.6" y1="0" x2="345.6" y2="400"/>
	<line fill="none" stroke="#000000" stroke-width="8" x1="0" y1="133.2" x2="357.9" y2="133.2"/>
	<line fill="none" stroke="#000000" stroke-width="8" x1="82.3" y1="93.8" x2="276.3" y2="93.8"/>
	<line fill="none" stroke="#000000" stroke-width="8" x1="82.3" y1="6.5" x2="276.3" y2="6.5"/>
	<line fill="none" stroke="#000000" stroke-width="8" x1="27.6" y1="93.8" x2="0" y2="93.8"/>
	<line fill="none" stroke="#000000" stroke-width="8" x1="0" y1="225.8" x2="357.9" y2="225.8"/>
	<line fill="none" stroke="#000000" stroke-width="8" x1="27.6" y1="247.8" x2="315.6" y2="247.8"/>
	<line fill="none" stroke="#000000" stroke-width="8" x1="0" y1="270.5" x2="357.9" y2="270.5"/>
	<line fill="none" stroke="#000000" stroke-width="8" x1="82.3" y1="385.2" x2="345.6" y2="385.2"/>
</g>
</svg>
