<?xml version="1.0" encoding="utf-8"?>
<!-- Generator: Adobe Illustrator 14.0.0, SVG Export Plug-In . SVG Version: 6.00 Build 43363)  -->
<!DOCTYPE svg PUBLIC "-//W3C//DTD SVG 1.1//EN" "http://www.w3.org/Graphics/SVG/1.1/DTD/svg11.dtd">
<svg version="1.1" id="Layer_1" xmlns="http://www.w3.org/2000/svg" xmlns:xlink="http://www.w3.org/1999/xlink" x="0px" y="0px"
	 width="640px" height="400px" viewBox="0 0 640 400" enable-background="new 0 0 640 400" xml:space="preserve" preserveAspectRatio="none">
<g>
	<rect x="0" y="67.3" fill="#FF0000" width="39.8" height="167.8"/>
	<polygon fill="#FFE700" points="640,373.6 603.4,373.5 603.4,235.1 640,235.1 	"/>
	<polygon fill="#0000FF" points="39.8,400 0,400 0,373.5 39.8,373.7 	"/>
	<rect x="410.3" y="0.2" fill="#0000FF" width="148.7" height="18.3"/>
	<rect x="84.2" y="18.5" fill="#FF0000" width="133.7" height="125.1"/>
	<rect x="217.9" y="0.2" fill="#FF0000" width="24.6" height="18.3"/>
	<rect x="603.4" y="18.5" fill="#FF0000" width="36.6" height="48.7"/>
	<rect x="245.2" y="372.9" fill="#FF0000" width="165.1" height="27.1"/>
	<rect x="355.7" y="0.3" fill="#FFE700" width="54.6" height="178.2"/>
	<rect x="410.3" y="295.8" fill="#FFE700" width="148.7" height="77.8"/>
	<rect x="217.9" y="373.6" fill="#FFE700" width="27.3" height="26.4"/>
	<rect x="217.9" y="143.7" width="27.3" height="34.8"/>
	<line stroke="#000000" stroke-width="6.3974" x1="0" y1="18.5" x2="640" y2="18.5"/>
	<line fill="none" stroke="#000000" stroke-width="6.3974" x1="0" y1="373.5" x2="640" y2="373.6"/>
	<line fill="none" stroke="#000000" stroke-width="6.3974" x1="603.4" y1="0.2" x2="603.4" y2="400"/>
	<line fill="none" stroke="#000000" stroke-width="6.3974" x1="559" y1="0.2" x2="559" y2="400"/>
	<line fill="none" stroke="#000000" stroke-width="6.3974" x1="84.2" y1="0.2" x2="84.2" y2="400"/>
	<line fill="none" stroke="#000000" stroke-width="6.3974" x1="39.8" y1="0.2" x2="39.8" y2="400"/>
	<line fill="none" stroke="#000000" stroke-width="6.3974" x1="0" y1="67.3" x2="39.8" y2="67.3"/>
	<line fill="none" stroke="#000000" stroke-width="6.3974" x1="603.4" y1="67.3" x2="640" y2="67.3"/>
	<line fill="none" stroke="#000000" stroke-width="6.3974" x1="84.2" y1="143.7" x2="559" y2="143.7"/>
	<line fill="none" stroke="#000000" stroke-width="6.3974" x1="84.2" y1="178.5" x2="559" y2="178.5"/>
	<line fill="none" stroke="#000000" stroke-width="6.3974" x1="84.2" y1="212.6" x2="217.9" y2="212.6"/>
	<line fill="none" stroke="#000000" stroke-width="6.3974" x1="410.3" y1="295.8" x2="559" y2="295.8"/>
	<line fill="none" stroke="#000000" stroke-width="6.3974" x1="410.3" y1="0.2" x2="410.3" y2="400"/>
	<line fill="none" stroke="#000000" stroke-width="6.3974" x1="356" y1="0.2" x2="356.3" y2="400"/>
	<line fill="none" stroke="#000000" stroke-width="6.3974" x1="217.9" y1="0.2" x2="217.9" y2="400"/>
	<line fill="none" stroke="#000000" stroke-width="6.3974" x1="245.2" y1="0.2" x2="245.2" y2="400"/>
	<line fill="none" stroke="#000000" stroke-width="6.3974" x1="0" y1="235.1" x2="39.7" y2="235.1"/>
	<line fill="none" stroke="#000000" stroke-width="6.3974" x1="603.4" y1="235.1" x2="640" y2="235.1"/>
</g>
</svg>
